<svg id="Layer_1" data-name="Layer 1" xmlns="http://www.w3.org/2000/svg" xmlns:xlink="http://www.w3.org/1999/xlink" viewBox="0 0 1151.9 864"><defs><style>.cls-1{fill:url(#linear-gradient);}.cls-2{fill:url(#linear-gradient-2);}.cls-3{fill:url(#linear-gradient-3);}.cls-4{fill:#efbb40;}.cls-5{fill:#fff;}</style><linearGradient id="linear-gradient" x1="285.13" y1="308.42" x2="505.56" y2="467.06" gradientUnits="userSpaceOnUse"><stop offset="0" stop-color="#efbb40"/><stop offset="1" stop-color="#54ad32"/></linearGradient><linearGradient id="linear-gradient-2" x1="351.52" y1="504.2" x2="364.31" y2="514.92" gradientUnits="userSpaceOnUse"><stop offset="0" stop-color="#44a2f8"/><stop offset="1" stop-color="#54ad32"/></linearGradient><linearGradient id="linear-gradient-3" x1="323.76" y1="352.34" x2="482.09" y2="485.07" xlink:href="#linear-gradient-2"/></defs><rect width="1151.9" height="864"/><polygon class="cls-1" points="528.4 398.39 511.85 407.94 511.85 416.34 489.29 416.34 489.29 408.52 469.83 397.29 458.22 403.99 439.65 384.57 443.93 382.1 443.93 356.26 421.55 343.33 399.17 356.26 399.17 361.91 375.57 357.06 375.57 344.68 356.11 333.44 336.64 344.68 336.64 367.15 356.11 378.38 375.57 367.15 375.57 361.43 399.17 366.28 399.17 382.1 407.43 386.87 384.12 425.96 378.4 422.66 365.65 430.02 351.82 419.91 351.82 404.49 336.64 395.73 321.46 404.49 321.46 422.03 336.64 430.79 349.4 423.43 363.22 433.54 363.22 448.96 378.4 457.72 393.58 448.96 393.58 431.43 387.82 428.1 411.13 389.01 421.55 395.02 435.84 386.76 454.42 406.19 450.37 408.52 450.37 431 469.83 442.23 489.29 431 489.29 420.62 511.85 420.62 511.85 427.04 528.4 436.6 544.94 427.04 544.94 407.94 528.4 398.39"/><polygon class="cls-2" points="350.37 505.24 350.37 514.1 358.05 518.53 365.73 514.1 365.73 505.24 358.05 500.8 350.37 505.24"/><path class="cls-3" d="M304.66,371v11l9.52,5.5,9.52-5.5V371l-9.52-5.49Zm5.12,37.51V396.93l-10-5.77-10,5.77v11.55l10,5.77Zm-11.91,25.87v8.76l7.59,4.38,7.59-4.38v-8.76L305.46,430Zm54.89,30.38V449.8l-12.93-7.47L326.9,449.8v14.93l12.93,7.46Zm6.68,10.76v14.93l12.93,7.47,12.93-7.47V475.49L372.37,468Zm146.09-81.25v-7.79l-6.75-3.9-6.75,3.9v7.79l6.75,3.9Zm11-32.68V350.42l-9.65-5.57-9.65,5.57v11.14l9.65,5.57Zm-39.61-23.65V325.4L466,319.14l-10.84,6.26v12.51L466,344.17Zm-76.82-7.29V316.26l-12.44-7.19-12.44,7.19v14.36l12.44,7.18ZM366.49,393v12.62L377.42,412l10.93-6.31V393l-10.93-6.31Zm76.16,61.61v7.77l6.73,3.89,6.74-3.89v-7.77l-6.74-3.89ZM464.27,458v9.37l8.11,4.68,8.11-4.68V458l-8.11-4.68Zm-1.4-94.74v12.51L473.71,382l10.84-6.26V363.24L473.71,357ZM490,448.07v12.52l10.84,6.25,10.84-6.25V448.07l-10.84-6.26Zm-43.69-135-7.65-4.42L431,313.08v8.83l7.65,4.41,7.65-4.41Zm78.1,53.05-9.7,5.6v11.2l9.7,5.6,9.7-5.6v-11.2ZM399.92,462.27v12.49L410.73,481l10.82-6.24V462.27L410.73,456Zm6.2-44v14.93l12.93,7.46L432,433.21V418.28l-12.93-7.47Zm-55.65,87v8.86l7.68,4.43,7.67-4.43v-8.86l-7.67-4.44Zm-17.25,13.68v4.82l4.17,2.41,4.18-2.41v-4.82l-4.18-2.41Z" transform="translate(-0.1)"/><path class="cls-4" d="M465.67,505.92a8.82,8.82,0,0,0-5.52-1.48H435.8v-8.18h24.4v3.85l6.92-1.27v-.37a4.06,4.06,0,0,1,0-.42c0-.17,0-.35,0-.53a9.56,9.56,0,0,0-.63-3.77,5.16,5.16,0,0,0-1.77-2.25,6.82,6.82,0,0,0-2.77-1.08,21.44,21.44,0,0,0-3.65-.29H437.28a23.58,23.58,0,0,0-3.57.26,7.37,7.37,0,0,0-2.85,1,5.44,5.44,0,0,0-1.88,2.09,7.53,7.53,0,0,0-.68,3.43v6.92q0,7,6.92,7H460v8.82h-26.3v-4.49l-6.66,1.11c0,.24-.07.49-.1.74a4.7,4.7,0,0,0-.08.68c0,.25,0,.46,0,.64a8.61,8.61,0,0,0,1.66,5.7c1.11,1.3,2.9,2,5.37,2h23.76a31.3,31.3,0,0,0,4-.24,8.31,8.31,0,0,0,3.11-1,5.06,5.06,0,0,0,2-2.11,7.9,7.9,0,0,0,.71-3.65v-7.81Q467.54,507.41,465.67,505.92Z" transform="translate(-0.1)"/><path class="cls-4" d="M509.3,502a6.73,6.73,0,0,0-2.56-1.48,12.41,12.41,0,0,0-3.86-.53H486.66a12.28,12.28,0,0,0-3.88.53,6.88,6.88,0,0,0-2.56,1.48,5.25,5.25,0,0,0-1.43,2.3,10,10,0,0,0-.42,3V519q0,7.08,8.29,7.08h16.22c3,0,5.17-.65,6.42-1.93a7.07,7.07,0,0,0,1.87-5.15V507.24a9.36,9.36,0,0,0-.45-3A5.62,5.62,0,0,0,509.3,502Zm-5.36,18.12H485.61V505.6h18.33Z" transform="translate(-0.1)"/><path class="cls-4" d="M561.61,521.77a15.61,15.61,0,0,1-5.86-.82,3.27,3.27,0,0,1-1.9-3.35V505.66h11.09v-5H554.11v-9l-7,1.69v7.29H530.82v-5.12a3.88,3.88,0,0,1,1.64-3.38q1.63-1.17,5.86-1.17c1,0,1.8,0,2.33.08s1.1.13,1.74.24l-2.06-4.75c-.53-.07-1.06-.12-1.59-.14l-1.48,0a44.08,44.08,0,0,0-5.86.34,11.38,11.38,0,0,0-4.25,1.35,6.29,6.29,0,0,0-2.56,2.77,10.85,10.85,0,0,0-.85,4.68v5.12h-6.49v5h6.33v20.39h7.24V505.66h16.27v11.83a11.74,11.74,0,0,0,.79,4.7,5.92,5.92,0,0,0,2.43,2.77,10.67,10.67,0,0,0,4.17,1.32,45.86,45.86,0,0,0,6.08.35l1.45,0a15.12,15.12,0,0,0,1.51-.13l2.16-5c-.63.08-1.21.14-1.74.19S562.64,521.77,561.61,521.77Z" transform="translate(-0.1)"/><path class="cls-4" d="M604,502a6.58,6.58,0,0,0-2.56-1.48,12.3,12.3,0,0,0-3.85-.53H581.37a12.28,12.28,0,0,0-3.88.53,6.8,6.8,0,0,0-2.56,1.48,5.25,5.25,0,0,0-1.43,2.3,10,10,0,0,0-.42,3V519q0,7.08,8.29,7.08h16.22c3,0,5.16-.65,6.41-1.93a7.08,7.08,0,0,0,1.88-5.15V507.24a9.36,9.36,0,0,0-.45-3A5.64,5.64,0,0,0,604,502Zm-5.36,18.12H580.31V505.6h18.33Z" transform="translate(-0.1)"/><path class="cls-4" d="M634.22,499.77a10,10,0,0,0-2-.19,11.23,11.23,0,0,0-3.64.53,9.63,9.63,0,0,0-2.64,1.35,11,11,0,0,0-1.93,1.77c-.55.63-1.05,1.23-1.51,1.79h-.21L622,500h-6.6v26.1h7.23V514.43a9.89,9.89,0,0,1,.69-3.86,6.81,6.81,0,0,1,2-2.67,8.62,8.62,0,0,1,3-1.53,14.35,14.35,0,0,1,3.88-.5c1,0,2.05,0,3.09.1a21.88,21.88,0,0,1,2.78.37l-2.17-6.12A11,11,0,0,0,634.22,499.77Z" transform="translate(-0.1)"/><polygon class="cls-4" points="660.77 520.02 650.73 499.95 642.38 499.95 656.12 525.52 658.23 525.52 650.25 536.61 658.39 536.61 679.31 499.95 671.75 499.95 660.77 520.02"/><polygon class="cls-4" points="713.48 490.13 705.19 490.13 705.19 526.05 740.84 526.05 740.84 519.44 713.48 519.44 713.48 490.13"/><path class="cls-4" d="M774.43,500.61a15.06,15.06,0,0,0-5.18-1.34c-1.94-.18-3.92-.27-6-.27a21.83,21.83,0,0,0-3.46.29c-1.18.2-2.26.42-3.25.66-1.16.29-2.27.6-3.32.95l-1.85,5.34a34.58,34.58,0,0,1,3.48-1.16c1.1-.29,2.35-.55,3.75-.8a26.76,26.76,0,0,1,4.49-.37,28.2,28.2,0,0,1,4.26.27,7.46,7.46,0,0,1,2.77.9,3.73,3.73,0,0,1,1.53,1.69,6.36,6.36,0,0,1,.48,2.64H755.31a6.82,6.82,0,0,0-5,1.79q-1.8,1.8-1.8,5.5v1.74q0,4,1.91,5.78a6.77,6.77,0,0,0,4.91,1.83h10.88a6.32,6.32,0,0,0,3.62-1,9.28,9.28,0,0,0,2.56-2.72h.21l.21,3.75h6.6V510a11.91,11.91,0,0,0-1.34-6.13A8.53,8.53,0,0,0,774.43,500.61Zm-2.27,16.09a3.52,3.52,0,0,1-3.6,4H755.2v-6.28h17Z" transform="translate(-0.1)"/><path class="cls-4" d="M813.94,500H803.06a6.17,6.17,0,0,0-2.41.43,7.5,7.5,0,0,0-1.77,1,6.92,6.92,0,0,0-1.21,1.21c-.32.43-.58.8-.79,1.11h-.21V486.43h-7.24v39.62H796l.21-3.75h.21c.22.31.49.68.82,1.11a9.07,9.07,0,0,0,1.24,1.24,6.61,6.61,0,0,0,1.75,1,6.53,6.53,0,0,0,2.37.4h11.31q8.29,0,8.29-7.08V507.19a7.12,7.12,0,0,0-2-5.34C819,500.59,816.86,500,813.94,500Zm1,20.13H800.73a5.84,5.84,0,0,1-1.48-.19,3.29,3.29,0,0,1-1.32-.66A3.36,3.36,0,0,1,797,518a4.7,4.7,0,0,1-.34-1.93v-6.44a4.13,4.13,0,0,1,1-2.93,3.31,3.31,0,0,1,2.53-1.09H815Z" transform="translate(-0.1)"/><path class="cls-4" d="M859.73,511.84a10.59,10.59,0,0,0-6-1.53H838.87V505H854.5v2.75l6.34-.58v-2a6.4,6.4,0,0,0-.34-2.14,3.83,3.83,0,0,0-1.16-1.66,5.74,5.74,0,0,0-2.19-1.06,14.06,14.06,0,0,0-3.49-.37H839.87a10.86,10.86,0,0,0-4.12.66,7,7,0,0,0-2.51,1.69,5.6,5.6,0,0,0-1.26,2.33,9.87,9.87,0,0,0-.35,2.56v2.11a5.5,5.5,0,0,0,2,4.28q1.95,1.74,6.33,1.74h14.85v5.39H837.28v-3.27l-5.91.58a8.13,8.13,0,0,0-.13,1.27c0,.45,0,.79,0,1a5.05,5.05,0,0,0,1.95,4.25,8.21,8.21,0,0,0,5.13,1.51h15.37q4.23,0,6.28-1.61A5.3,5.3,0,0,0,862,520v-3.48A5.26,5.26,0,0,0,859.73,511.84Z" transform="translate(-0.1)"/><path class="cls-5" d="M428.62,555.12h-1.75V542h1.75Z" transform="translate(-0.1)"/><path class="cls-5" d="M447.59,555.12H445.8l-6.88-10.38v10.38h-1.65V542H439l6.89,10.38V542h1.66Z" transform="translate(-0.1)"/><path class="cls-5" d="M466.36,555.12h-1.79l-6.88-10.38v10.38H456V542h1.77l6.89,10.38V542h1.66Z" transform="translate(-0.1)"/><path class="cls-5" d="M480.5,541.75a5.94,5.94,0,0,1,4.52,1.86,7.78,7.78,0,0,1,0,9.86,6.42,6.42,0,0,1-9.06,0,7.78,7.78,0,0,1,0-9.86A6,6,0,0,1,480.5,541.75Zm0,12.1a4.1,4.1,0,0,0,3.23-1.4,6.7,6.7,0,0,0,0-7.81,4.1,4.1,0,0,0-3.2-1.4,4.16,4.16,0,0,0-3.25,1.4,5.57,5.57,0,0,0-1.27,3.9,5.66,5.66,0,0,0,1.26,3.91A4.17,4.17,0,0,0,480.48,553.85Z" transform="translate(-0.1)"/><path class="cls-5" d="M505.25,542l-5.11,13.15h-1.79L493.24,542h1.85l4.15,11.27L503.4,542Z" transform="translate(-0.1)"/><path class="cls-5" d="M523.15,555.12h-2l-1.53-4h-5.5l-1.46,4h-1.83l5-13.15h1.87Zm-4-5.39-2.31-6.09-2.21,6.09Z" transform="translate(-0.1)"/><path class="cls-5" d="M539.46,543.53h-4.35v11.59h-1.75V543.53h-4.31V542h10.41Z" transform="translate(-0.1)"/><path class="cls-5" d="M556.64,555.12h-9.8V542h9.5v1.56h-7.76v4h7.26v1.56h-7.26v4.45h8.06Z" transform="translate(-0.1)"/><path class="cls-5" d="M566.6,555.12h-1.84v-1.84h1.84Z" transform="translate(-0.1)"/><path class="cls-5" d="M591.1,555.34a5.72,5.72,0,0,1-4.45-1.83,8.26,8.26,0,0,1,0-9.93,5.72,5.72,0,0,1,4.45-1.83,5.81,5.81,0,0,1,3.65,1.15,4.22,4.22,0,0,1,1.7,3.05h-1.8a2.65,2.65,0,0,0-1.08-2,4.39,4.39,0,0,0-5.61.64,5.91,5.91,0,0,0-1.17,3.93,6,6,0,0,0,1.15,3.93,3.9,3.9,0,0,0,3.14,1.38,3.94,3.94,0,0,0,2.5-.75,2.93,2.93,0,0,0,1.07-2.15h1.8a4.43,4.43,0,0,1-1.65,3.24A5.8,5.8,0,0,1,591.1,555.34Z" transform="translate(-0.1)"/><path class="cls-5" d="M615.32,555.12h-1.88l-1.24-3.51a3.24,3.24,0,0,0-1.1-1.52,2.83,2.83,0,0,0-1.78-.59H606.1v5.62h-1.74V542h5.82a8.66,8.66,0,0,1,2.5.3,2.79,2.79,0,0,1,1.57,1.24,3.88,3.88,0,0,1,.61,2.15,3.43,3.43,0,0,1-.78,2.28,3.83,3.83,0,0,1-2.17,1.19v0a3.55,3.55,0,0,1,2.09,2.38Zm-9.22-7.18H610a4.21,4.21,0,0,0,2.36-.52,2,2,0,0,0,.73-1.76c0-1.5-.94-2.24-2.81-2.24H606.1Z" transform="translate(-0.1)"/><path class="cls-5" d="M632.93,555.12h-9.79V542h9.49v1.56h-7.75v4h7.25v1.56h-7.25v4.45h8Z" transform="translate(-0.1)"/><path class="cls-5" d="M651.69,555.12h-2l-1.52-4h-5.51l-1.45,4H639.4L644.45,542h1.87Zm-4-5.39-2.31-6.09-2.21,6.09Z" transform="translate(-0.1)"/><path class="cls-5" d="M668,543.53h-4.35v11.59h-1.75V543.53h-4.31V542H668Z" transform="translate(-0.1)"/><path class="cls-5" d="M685.18,555.12h-9.8V542h9.5v1.56h-7.76v4h7.25v1.56h-7.25v4.45h8.06Z" transform="translate(-0.1)"/><path class="cls-5" d="M695.13,555.12h-1.84v-1.84h1.84Z" transform="translate(-0.1)"/><path class="cls-5" d="M724.93,555.12h-2l-1.52-4h-5.5l-1.46,4h-1.84L717.69,542h1.87Zm-4-5.39-2.31-6.09-2.21,6.09Z" transform="translate(-0.1)"/><path class="cls-5" d="M737,555.34a5.46,5.46,0,0,1-3.42-.89,3.84,3.84,0,0,1-1.43-2.09,11.58,11.58,0,0,1-.3-2.79V542h1.74v7.58c0,1.73.29,2.86.87,3.41a4.4,4.4,0,0,0,5.09,0c.58-.55.87-1.68.87-3.41V542h1.75v7.6a8.17,8.17,0,0,1-.57,3.52,3.66,3.66,0,0,1-1.72,1.69A6.43,6.43,0,0,1,737,555.34Z" transform="translate(-0.1)"/><path class="cls-5" d="M760,543.53h-4.35v11.59h-1.74V543.53h-4.32V542H760Z" transform="translate(-0.1)"/><path class="cls-5" d="M773.08,541.75a5.94,5.94,0,0,1,4.52,1.86,7.78,7.78,0,0,1,0,9.86,6.42,6.42,0,0,1-9.06,0,7.78,7.78,0,0,1,0-9.86A6,6,0,0,1,773.08,541.75Zm0,12.1a4.14,4.14,0,0,0,3.24-1.4,6.72,6.72,0,0,0,0-7.81,4.1,4.1,0,0,0-3.2-1.4,4.16,4.16,0,0,0-3.25,1.4,5.57,5.57,0,0,0-1.27,3.9,5.66,5.66,0,0,0,1.26,3.91A4.17,4.17,0,0,0,773.06,553.85Z" transform="translate(-0.1)"/><path class="cls-5" d="M799.53,555.12h-1.65V543.93l-3.75,11.19h-1.56l-3.74-11.19v11.19h-1.65V542h2.61l3.56,11,3.57-11h2.61Z" transform="translate(-0.1)"/><path class="cls-5" d="M818.78,555.12h-2l-1.52-4h-5.5l-1.46,4h-1.84l5-13.15h1.87Zm-4-5.39-2.31-6.09-2.21,6.09Z" transform="translate(-0.1)"/><path class="cls-5" d="M835.08,543.53h-4.35v11.59H829V543.53h-4.31V542h10.41Z" transform="translate(-0.1)"/><path class="cls-5" d="M852.27,555.12h-9.8V542H852v1.56h-7.76v4h7.25v1.56h-7.25v4.45h8.06Z" transform="translate(-0.1)"/><path class="cls-5" d="M862.22,555.12h-1.83v-1.84h1.83Z" transform="translate(-0.1)"/></svg>